<?xml version="1.0" encoding="utf-8"?>
<!-- Generator: Adobe Illustrator 27.5.0, SVG Export Plug-In . SVG Version: 6.00 Build 0)  -->
<svg version="1.1" xmlns="http://www.w3.org/2000/svg" xmlns:xlink="http://www.w3.org/1999/xlink" x="0px" y="0px"
	 viewBox="0 0 750 500" style="enable-background:new 0 0 750 500;" xml:space="preserve">
<g id="BACKGROUND">
	<rect style="fill:#F0D5DB;" width="750" height="500"/>
</g>
<g id="OBJECTS">
	<g>
		<g>
			<g>
				<g>
					<g>
						<rect x="136.76" y="324.208" style="fill:#FFFFFF;" width="7.907" height="46.918"/>
						<rect x="132.953" y="363.512" style="fill:#101010;" width="15.814" height="48.907"/>
						<rect x="107.974" y="409.258" style="fill:#FFFFFF;" width="66.042" height="6.354"/>
						<rect x="107.974" y="409.258" style="fill:#FFFFFF;" width="5.199" height="19.062"/>
						
							<ellipse transform="matrix(0.1587 -0.9873 0.9873 0.1587 -337.7574 471.7979)" style="fill:#101010;" cx="107.974" cy="434.096" rx="9.627" ry="9.627"/>
						
							<rect x="168.817" y="409.258" transform="matrix(-1 -1.224647e-16 1.224647e-16 -1 342.8336 837.5781)" style="fill:#FFFFFF;" width="5.199" height="19.062"/>
						
							<ellipse transform="matrix(0.725 -0.6888 0.6888 0.725 -251.1348 239.2428)" style="fill:#101010;" cx="174.016" cy="434.096" rx="9.627" ry="9.627"/>
					</g>
					<g>
						<path d="M81.851,330.515h73.813c5.035,0,8.655-5.634,7.229-11.254l-35.249-138.944c-0.946-3.728-3.888-6.287-7.229-6.287
							H46.602c-5.035,0-8.654,5.634-7.229,11.253l35.249,138.945C75.568,327.956,78.51,330.515,81.851,330.515z"/>
						<path style="fill:#706F84;" d="M92.008,330.515h64.294c5.035,0,8.654-5.634,7.229-11.254l-35.249-138.944
							c-0.946-3.728-3.888-6.287-7.229-6.287H56.758c-5.035,0-8.654,5.634-7.229,11.253l35.249,138.945
							C85.725,327.956,88.667,330.515,92.008,330.515z"/>
						<path d="M87.659,330.515h109.347c5.1,0,9.234-4.134,9.234-9.234l0,0c0-5.1-4.134-9.234-9.234-9.234H87.659
							c-5.1,0-9.234,4.134-9.234,9.234l0,0C78.425,326.381,82.559,330.515,87.659,330.515z"/>
					</g>
				</g>
				<g>
					<g>
						<g>
							<g>
								<path style="fill:#EBAE89;" d="M141.96,214.387c3.633,6.727,20.744,38.638,28.668,48.959
									c3.399,4.427,9.813,5.126,14.115,1.569l0,0c3.89-3.215,4.533-8.543,1.753-12.755l-27.905-47.696
									c-3.083-4.671-9.469-5.768-13.934-2.394l0,0C140.845,204.95,139.69,210.183,141.96,214.387z"/>
								<path style="fill:#629FFB;" d="M161.51,201.231c2.907,3.99,11.83,16.995,11.83,16.995l-25.887,13.433l-9.598-16.368
									c-2.56-5.35-1.419-11.738,2.836-15.87h0C146.733,193.552,156.549,194.424,161.51,201.231z"/>
							</g>
							<path style="fill:#EBAE89;" d="M175.37,266.669c0,0,25.836,1.406,53.48-2.561l2.938-7.662l-50.551-6.188L175.37,266.669z"/>
						</g>
						<g>
							<path style="fill:#629FFB;" d="M137.943,186.687l-32.17,10.41c-1.173,0.38-1.958,1.485-1.929,2.718l5.079,67.305h37.684
								l9.772-23.497c3.838-7.285,5.389-19.584,4.449-27.765l-0.994-14.816c-0.17-1.48-1.044-2.787-2.346-3.51L137.943,186.687z"/>
							<polygon style="fill:#EBAE89;" points="125.047,190.86 137.943,186.687 151.578,194.253 144.908,206.402 							"/>
							
								<path style="fill:none;stroke:#000000;stroke-width:0.5207;stroke-linecap:round;stroke-linejoin:round;stroke-miterlimit:10;" d="
								M160.973,224.644c0,0-0.267-6.831-0.913-11.054"/>
						</g>
						<g>
							<g>
								<path style="fill:#EBAE89;" d="M101.342,205.812c-3.639,6.723-22.809,38.516-27.106,50.798
									c-1.843,5.269,1.085,11.017,6.417,12.67l0,0c4.82,1.494,9.631-0.885,11.633-5.518l26.467-49.468
									c2.22-5.137-0.359-11.082-5.627-12.97v0C108.627,199.711,103.616,201.61,101.342,205.812z"/>
								<g>
									<path style="fill:#629FFB;" d="M98.961,202.016c-2.907,3.99-11.83,16.995-11.83,16.995l25.887,13.433l9.598-16.367
										c2.56-5.35,1.418-11.737-2.836-15.87h0C113.737,194.338,103.921,195.209,98.961,202.016z"/>
									
										<polyline style="fill:none;stroke:#000000;stroke-width:0.5207;stroke-linecap:round;stroke-linejoin:round;stroke-miterlimit:10;" points="
										109.953,230.952 113.017,232.445 121.649,217.883 									"/>
								</g>
							</g>
							<g>
								<g>
									<path style="fill:#EBAE89;" d="M82.644,269.681c0,0,25.836,1.405,53.48-2.561l2.938-7.662l-50.551-6.188L82.644,269.681z"
										/>
									
										<line style="fill:none;stroke:#000000;stroke-width:0.5207;stroke-linecap:round;stroke-linejoin:round;stroke-miterlimit:10;" x1="87.231" y1="253.107" x2="97.065" y2="254.356"/>
								</g>
								<g>
									<g>
										<path d="M138.494,240.329l8.409,20.228l3.058-0.76l-8.642-20.636c-0.145-0.368-0.564-0.544-0.929-0.391l-1.519,0.639
											C138.514,239.56,138.346,239.971,138.494,240.329z"/>
										<path d="M140.922,243.854l-2.419-5.495c-0.162-0.367,0.002-0.797,0.367-0.964l0,0c0.38-0.174,0.828,0.004,0.986,0.392
											l2.229,5.486L140.922,243.854z"/>
									</g>
									<path style="fill:#EBAE89;" d="M139.062,259.458c0,0,15.86-9.465,20.999,7.662h-23.936L139.062,259.458z"/>
								</g>
							</g>
						</g>
					</g>
					<g>
						<g>
							<g>
								<polygon style="fill:#EBAE89;" points="150.082,395.499 173.465,362.191 189.842,370.877 164.752,405.495 								"/>
								<polygon style="fill:#FFFFFF;" points="175.37,390.844 160.555,380.58 150.082,395.499 164.752,405.495 								"/>
								<g>
									<path d="M158.316,399.391l0.164,0.101c1.711,1.06,3.887,0.625,5.197-0.903c0.886-1.034,2.224-2.064,4.221-2.624
										c1.859-0.521,3.807,0.492,4.487,2.299c2.315,6.159,8.492,21.486,16.538,32.759c1.853,2.596,2.344,5.92,1.253,8.917
										l-0.592,1.628l-52.479-36.619l12.562-14.112c0.854-1.899,3.052-2.788,4.986-2.018l0,0c1.787,0.712,2.785,2.625,2.346,4.498
										l-0.457,1.794C156.153,396.772,156.867,398.494,158.316,399.391z"/>
									<path style="fill:#FFFFFF;" d="M137.104,404.949c0,0-0.964,0.005-1.581,1.059c-0.747,1.275-0.277,2.925,0.94,3.764
										l47.56,33.326c1.926,1.328,4.584,0.596,5.56-1.53l0,0L137.104,404.949z"/>
									<g>
										
											<path style="fill:none;stroke:#FFFFFF;stroke-width:1.0727;stroke-linecap:round;stroke-linejoin:round;stroke-miterlimit:10;" d="
											M176.177,407.117c0,0-1.58-0.979-5.043,1.434"/>
										
											<path style="fill:none;stroke:#FFFFFF;stroke-width:1.0727;stroke-linecap:round;stroke-linejoin:round;stroke-miterlimit:10;" d="
											M177.573,409.915c0,0-1.58-0.979-5.043,1.434"/>
										
											<path style="fill:none;stroke:#FFFFFF;stroke-width:1.0727;stroke-linecap:round;stroke-linejoin:round;stroke-miterlimit:10;" d="
											M178.969,412.712c0,0-1.58-0.979-5.043,1.434"/>
									</g>
									<path style="fill:#D665A2;" d="M142.355,399.051c0,0,16.822,6.922,22.648,25.366l-27.899-19.467
										C137.104,404.949,138.849,401.7,142.355,399.051z"/>
								</g>
							</g>
							<path style="fill:#4729CD;" d="M202.602,305.987l-42.761,66.27l22.899,15.999l47.528-63.507
								c6.034-8.327,3.194-20.074-5.976-24.726l0,0C216.606,296.124,207.215,298.706,202.602,305.987z"/>
						</g>
						<g>
							<path style="fill:#5D36DE;" d="M111.485,266.911c0,0-11.38,14.24-2.52,32.215c6.836,13.868,92.476,19.404,92.476,19.404
								l16.03-25.369l-70.147-26.25H111.485z"/>
							<g>
								<g>
									<polygon style="fill:#EBAE89;" points="198.66,423.967 198.913,383.271 217.321,381.084 216.411,423.829 									"/>
									<polygon style="fill:#FFFFFF;" points="216.796,405.739 198.774,405.739 198.66,423.967 216.411,423.829 									"/>
									<g>
										<path d="M207.645,422.477l0.192-0.01c2.01-0.103,3.551-1.7,3.757-3.702c0.14-1.355,0.653-2.963,1.975-4.56
											c1.232-1.487,3.41-1.764,4.997-0.665c5.41,3.745,19.216,12.826,32.25,17.51c3.001,1.078,5.298,3.532,6.108,6.616
											l0.44,1.676l-63.992-0.215l2.29-18.754c-0.38-2.047,0.921-4.03,2.949-4.498l0,0c1.875-0.432,3.784,0.572,4.49,2.361
											l0.646,1.735C204.376,421.555,205.943,422.564,207.645,422.477z"/>
										<path style="fill:#FFFFFF;" d="M193.374,439.126c0,0-0.789,0.553-0.697,1.771c0.112,1.473,1.439,2.562,2.916,2.558
											l58.073,0.31c2.339-0.006,4.107-2.12,3.699-4.424l0,0L193.374,439.126z"/>
										<g>
											
												<path style="fill:none;stroke:#FFFFFF;stroke-width:1.0727;stroke-linecap:round;stroke-linejoin:round;stroke-miterlimit:10;" d="
												M226.727,418.656c0,0-1.856,0.095-3.329,4.05"/>
											
												<path style="fill:none;stroke:#FFFFFF;stroke-width:1.0727;stroke-linecap:round;stroke-linejoin:round;stroke-miterlimit:10;" d="
												M229.467,420.16c0,0-1.856,0.095-3.329,4.051"/>
											
												<path style="fill:none;stroke:#FFFFFF;stroke-width:1.0727;stroke-linecap:round;stroke-linejoin:round;stroke-miterlimit:10;" d="
												M232.208,421.665c0,0-1.856,0.095-3.329,4.05"/>
										</g>
										<path style="fill:#D665A2;" d="M194.331,431.286c0,0,17.77-3.89,33.062,7.954l-34.019-0.114
											C193.374,439.126,192.958,435.46,194.331,431.286z"/>
									</g>
								</g>
								<g>
									<path style="fill:#5D36DE;" d="M190.81,314.175l2.637,85.128l27.935,0.111l2.981-92.659
										c0.082-2.649-0.333-5.311-1.394-7.74c-1.012-2.318-2.701-4.734-5.499-5.855l-17.21,3.319L190.81,314.175z"/>
									
										<line style="fill:none;stroke:#000000;stroke-width:0.5207;stroke-linecap:round;stroke-linejoin:round;stroke-miterlimit:10;" x1="190.712" y1="317.692" x2="190.155" y2="307.679"/>
								</g>
							</g>
						</g>
					</g>
					<g>
						<path style="fill:#D665A2;" d="M149.262,128.184c0,0-8.384-4.427-18.371,1.53c-11.085,6.612-20.536,37.933-20.536,37.933
							s39.756,20.72,62.986,2.095C173.341,169.742,172.155,124.029,149.262,128.184z"/>
						<path style="fill:#D665A2;" d="M123.357,143.766c-0.323,12.788,12.268,22.177,19.976,22.231
							c10.744,0.075,19.826-7.498,20.309-17.865c0.483-10.367-7.827-19.176-18.561-19.675
							C135.923,128.03,123.614,133.581,123.357,143.766z"/>
						<g>
							<g>
								<path style="fill:#DE9E7B;" d="M153.256,159.322c-0.243,3.361,2.307,5.762,5.669,6.005c3.361,0.243,6.319-3.019,6.563-6.38
									c0.243-3.361-2.343-5.027-5.704-5.27C156.422,153.433,153.5,155.961,153.256,159.322z"/>
							</g>
							<path style="fill:#FFFFFF;" d="M160.297,164.934c-0.032,0.697,0.506,1.288,1.204,1.321c0.697,0.033,1.288-0.506,1.321-1.203
								c0.033-0.697-0.506-1.289-1.203-1.321C160.921,163.698,160.329,164.237,160.297,164.934z"/>
						</g>
						<polygon style="fill:#EBAE89;" points="138.232,162.44 131.454,194.483 146.561,195.52 149.951,167.331 						"/>
						<path style="fill:#060606;" d="M148.409,180.156c0,0-7.884-2.105-12.643-13.554l13.904,3.924L148.409,180.156z"/>
						<path style="fill:#EBAE89;" d="M151.919,131.723c0,0,13.359,1.04,11.571,17.818c-1.788,16.778-4.061,21.155-11.259,24.364
							c-6.469,2.884-14.428-0.327-18.69-7.695c-1.674-2.894-2.832-7.18-2.943-10.48l-0.843-4.443
							C129.755,151.286,125.249,129.173,151.919,131.723z"/>
						<g>
							<g>
								
									<polyline style="fill:none;stroke:#000000;stroke-width:0.4834;stroke-linecap:round;stroke-linejoin:round;stroke-miterlimit:10;" points="
									153.651,158.092 154.721,160.627 153.162,161.304 								"/>
							</g>
							<g>
								<defs>
									<path id="XMLID_34_" d="M144.162,152.21c0,0,4.327-0.185,4.56,1.712c0.233,1.896-4.881,1.7-4.881,1.7
										s-4.441,0.252-4.582-1.526C139.119,152.317,144.162,152.21,144.162,152.21z"/>
								</defs>
								<use xlink:href="#XMLID_34_"  style="overflow:visible;fill:#FFFFFF;"/>
								<clipPath id="XMLID_00000084531367528626166140000010325434248811839145_">
									<use xlink:href="#XMLID_34_"  style="overflow:visible;"/>
								</clipPath>
								<path style="clip-path:url(#XMLID_00000084531367528626166140000010325434248811839145_);fill:#060606;" d="
									M142.058,153.984c0.063,1.154,1.304,2.048,2.772,1.997c1.468-0.051,2.607-1.028,2.543-2.182
									c-0.063-1.154-1.304-2.048-2.772-1.997C143.134,151.853,141.995,152.83,142.058,153.984z"/>
							</g>
							<g>
								<defs>
									<path id="XMLID_33_" d="M158.716,153.253c0,0-3.087-0.315-3.353,1.349c-0.265,1.664,3.385,1.758,3.385,1.758
										s3.187,0.29,3.379-1.273C162.32,153.524,158.716,153.253,158.716,153.253z"/>
								</defs>
								<use xlink:href="#XMLID_33_"  style="overflow:visible;fill:#FFFFFF;"/>
								<clipPath id="XMLID_00000065058828969740391050000010907156883162075054_">
									<use xlink:href="#XMLID_33_"  style="overflow:visible;"/>
								</clipPath>
								<path style="clip-path:url(#XMLID_00000065058828969740391050000010907156883162075054_);fill:#060606;" d="
									M160.763,154.925c-0.105,1.015-1.093,1.755-2.207,1.653c-1.114-0.103-1.932-1.009-1.827-2.025
									c0.105-1.015,1.093-1.755,2.207-1.653C160.05,153.003,160.868,153.91,160.763,154.925z"/>
							</g>
							<path style="fill:#060606;" d="M140.168,147.158l7.613-0.593c0.83-0.079,1.438-0.815,1.36-1.645l0,0
								c-0.079-0.83-0.815-1.438-1.645-1.36l-7.613,0.593c-0.83,0.079-1.438,0.815-1.36,1.645v0
								C138.602,146.628,139.339,147.237,140.168,147.158z"/>
							<path style="fill:#060606;" d="M162.748,148.716l-5.141-1.588c-0.819-0.156-1.356-0.945-1.201-1.764l0,0
								c0.156-0.819,0.945-1.356,1.764-1.201l5.141,1.588c0.819,0.156,1.356,0.945,1.201,1.764v0
								C164.357,148.334,163.567,148.872,162.748,148.716z"/>
							
								<path style="fill:none;stroke:#000000;stroke-width:0.4834;stroke-linecap:round;stroke-linejoin:round;stroke-miterlimit:10;" d="
								M153.68,164.626c0,0-3.475,1.323-6.935-0.983"/>
						</g>
						<path style="fill:#D665A2;" d="M149.19,129.962c0,0,4.577,18.351-21.318,16.508
							C127.871,146.47,131.298,130.208,149.19,129.962z"/>
						<polygon style="fill:#D665A2;" points="135.38,144.991 132.536,157.1 126.235,150.686 127.357,143.225 						"/>
						<g>
							<path style="fill:#EBAE89;" d="M134.001,160.176c-0.875,3.255-2.526,4.432-6.81,3.355c-3.268-0.822-4.976-4.929-4.101-8.183
								c0.875-3.254,3.605-3.906,6.976-2.664C132.413,153.548,134.876,156.921,134.001,160.176z"/>
							
								<path style="fill:none;stroke:#000000;stroke-width:0.4834;stroke-linecap:round;stroke-linejoin:round;stroke-miterlimit:10;" d="
								M126.778,155.662c0,0,3.146-0.549,4.031,3.926"/>
							<path style="fill:#FFFFFF;" d="M129.698,163.124c-0.033,0.697,0.506,1.289,1.204,1.321c0.697,0.033,1.288-0.506,1.321-1.203
								s-0.506-1.289-1.204-1.321C130.322,161.888,129.73,162.426,129.698,163.124z"/>
						</g>
					</g>
				</g>
			</g>
			<g>
				<g>
					<path style="fill:#4D495D;" d="M223.577,211.79l-19.482,50.333h74.995l18.58-49.776c0.499-2.338-1.284-4.541-3.675-4.541
						h-65.429C226.177,207.806,224.106,209.46,223.577,211.79z"/>
					<rect x="204.095" y="262.123" style="fill:#706F84;" width="75.4" height="4.788"/>
					<path d="M165.275,266.911h38.82v-4.788h-34.032C167.419,262.123,165.275,264.266,165.275,266.911L165.275,266.911z"/>
					<path style="fill:#706F84;" d="M259.346,237.469c-1.153,3.025-4.291,4.637-7.008,3.601c-2.717-1.036-3.986-4.328-2.833-7.352
						c1.153-3.025,4.291-4.637,7.008-3.601C259.23,231.153,260.499,234.445,259.346,237.469z"/>
				</g>
				<path d="M105.168,263.65h52.708c1.801,0,3.26,1.46,3.26,3.26l0,0h-59.229l0,0C101.908,265.11,103.368,263.65,105.168,263.65z"/>
			</g>
		</g>
		<g>
			<g>
				<polygon style="fill:#B76E81;" points="83.493,275.152 66.699,443.723 72.51,443.723 96.901,275.152 				"/>
				<polygon style="fill:#B76E81;" points="259.291,275.152 276.085,443.723 270.273,443.723 245.882,275.152 				"/>
			</g>
			<g>
				<polygon style="fill:#B76E81;" points="464.547,275.152 447.754,443.723 453.565,443.723 477.956,275.152 				"/>
				<polygon style="fill:#B76E81;" points="639.346,275.152 656.139,443.723 650.328,443.723 625.937,275.152 				"/>
			</g>
			<rect x="223.398" y="266.911" style="fill:#FFFFFF;" width="428.771" height="16.483"/>
			<rect x="40.513" y="266.911" style="fill:#F8E7EC;" width="182.885" height="16.483"/>
		</g>
		<g>
			<g>
				<path style="fill:#4D495D;" d="M503.947,211.749l19.482,50.333h-74.995l-18.58-49.775c-0.499-2.338,1.284-4.541,3.675-4.541
					h65.429C501.347,207.765,503.418,209.419,503.947,211.749z"/>
				<path d="M452.394,266.87h71.035l1.515-4.788h-76.51l0.015,0.906C448.484,265.142,450.24,266.87,452.394,266.87z"/>
				<path d="M562.249,266.87h-38.82v-4.788h34.032C560.105,262.082,562.249,264.225,562.249,266.87L562.249,266.87z"/>
				<polygon style="fill:#FFFFFF;" points="438.725,214.056 454.085,256.724 514.146,256.724 497.982,214.056 				"/>
				<g>
					
						<polygon style="fill:none;stroke:#000000;stroke-width:0.4132;stroke-linecap:round;stroke-linejoin:round;stroke-miterlimit:10;" points="
						461.664,225.419 468.106,243.315 493.298,243.315 486.518,225.419 					"/>
					<g>
						<polygon style="fill:#E69724;" points="463.52,226.854 460.94,226.854 460.005,224.275 462.584,224.275 						"/>
						<polygon style="fill:#E69724;" points="469.857,244.605 467.277,244.605 466.342,242.025 468.921,242.025 						"/>
						<polygon style="fill:#E69724;" points="488.067,226.854 485.488,226.854 484.552,224.275 487.132,224.275 						"/>
						<polygon style="fill:#E69724;" points="494.36,244.605 491.781,244.605 490.845,242.025 493.425,242.025 						"/>
					</g>
				</g>
			</g>
			<g>
				<g>
					<g>
						<g>
							<g>
								<polygon style="fill:#EBAE89;" points="602.17,419.849 586.879,371.309 569.401,380.067 585.956,426.898 								"/>
								<g>
									<g>
										<g>
											<defs>
												<path id="XMLID_22_" d="M601.119,417.023c-4.463,2.001-9.718,2.901-15.87-0.118c0,0-2.446-7.513-9.26-3.145
													c0,0-7.872,8.804-19.568,11.175c-16.22,3.288-16.948,10.84-16.948,10.84h71.739l-6.496-16.728
													C604.435,417.375,602.667,416.329,601.119,417.023z"/>
											</defs>
											<use xlink:href="#XMLID_22_"  style="overflow:visible;"/>
											<clipPath id="XMLID_00000122690970657650395340000004600058098585333677_">
												<use xlink:href="#XMLID_22_"  style="overflow:visible;"/>
											</clipPath>
										</g>
										
											<rect x="539.472" y="435.776" transform="matrix(-1 -1.224647e-16 1.224647e-16 -1 1150.6841 879.0639)" style="fill:#FFFFFF;" width="71.739" height="7.513"/>
									</g>
								</g>
							</g>
							<polygon style="fill:#4729CD;" points="541.567,311.877 571.94,404.31 602.909,404.31 578.505,309.736 							"/>
						</g>
						<g>
							<g>
								<g>
									<polygon style="fill:#EBAE89;" points="570.723,419.849 555.432,371.309 537.953,380.067 554.509,426.898 									"/>
									<g>
										<g>
											<g>
												<defs>
													<path id="XMLID_21_" d="M569.671,417.023c-4.463,2.001-9.718,2.901-15.87-0.118c0,0-2.446-7.513-9.26-3.145
														c0,0-7.872,8.804-19.568,11.175c-16.22,3.288-16.948,10.84-16.948,10.84h71.739l-6.496-16.728
														C572.988,417.375,571.219,416.329,569.671,417.023z"/>
												</defs>
												<use xlink:href="#XMLID_21_"  style="overflow:visible;"/>
												<clipPath id="XMLID_00000127729906898634146450000000902940682067206325_">
													<use xlink:href="#XMLID_21_"  style="overflow:visible;"/>
												</clipPath>
											</g>
											
												<rect x="508.025" y="435.776" transform="matrix(-1 -1.224647e-16 1.224647e-16 -1 1087.7887 879.0639)" style="fill:#FFFFFF;" width="71.739" height="7.513"/>
										</g>
									</g>
								</g>
								<polygon style="fill:#5A33DC;" points="509.242,310.617 538.398,404.31 573.555,404.31 547.057,309.736 								"/>
							</g>
							<path style="fill:#5A33DC;" d="M579.183,277.954l-63.779,14.854c-6.092,1.531-8.306,11.905-6.161,17.809l8.778,0.099
								c1.522,4.19,1.856,5.949,6.314,5.949l138.086-2.979l-48.654-35.502L579.183,277.954z"/>
						</g>
					</g>
					<g>
						<g>
							<g>
								<path style="opacity:0.13;fill:#FFFFFF;" d="M556.134,144.457l9.67,10.636c0,0-1.864,5.334-5.881,5.319l-9.712-10.338
									C550.211,150.074,551.832,144.723,556.134,144.457z"/>
								<g>
									<path style="fill:none;stroke:#FFFFFF;stroke-width:1.2593;stroke-miterlimit:10;" d="M549.797,153.382
										c0.414,4.6,4.419,7.914,8.945,7.402c4.526-0.513,7.86-4.657,7.446-9.257c-0.414-4.6-4.419-7.914-8.945-7.401
										C552.716,144.637,549.383,148.781,549.797,153.382z"/>
								</g>
								<path style="fill:#9E5837;" d="M557.374,148.053c0.65,12.303,7.059,22.265,19.029,21.633
									c11.971-0.633,24.5-16.355,23.85-28.657c-0.65-12.303-9.384-19.172-24.459-17.797
									C563.857,124.32,556.724,135.75,557.374,148.053z"/>
								<path style="fill:#EBAE89;" d="M563.288,130.544c0,0-10.235,0.747-9.075,14.06c0,0,0.753,5.129,1.809,17.623
									c0.559,6.602,5.588,14.678,13.837,13.284c4.001-0.676,8.852-0.403,12.42-3.834l4.142-8.749
									c11.252-15.733-2.992-37.392-21.77-32.749C564.203,130.29,563.749,130.411,563.288,130.544z"/>
								<path style="fill:#EBAE89;" d="M557.58,155.198l-3.382,6.428c-0.352,0.649-0.084,1.594,0.74,1.591l4.38,0.279
									L557.58,155.198z"/>
								<g>
									<g>
										<g>
											<g>
												
													<path style="fill:none;stroke:#000000;stroke-width:0.5026;stroke-linecap:round;stroke-linejoin:round;stroke-miterlimit:10;" d="
													M557.094,166.178c1.18-0.233,2.304-0.865,2.815-1.625"/>
											</g>
										</g>
									</g>
								</g>
								<polygon style="fill:#EBAE89;" points="573.472,172.067 578.782,193.534 597.193,191.412 585.487,154.906 								"/>
								<path style="fill:#9E5837;" d="M568.55,155.026l-2.004-8.147c0,0-9.174-9.661-3.258-16.335c0,0,6.632-1.536,7.658,4.356
									c1.026,5.892,1.975,13.707,1.975,13.707L568.55,155.026z"/>
								<path style="fill:#9E5837;" d="M574.053,161.898c0,0,1.945,7.629,14.458,2.437l3.498-10.385c0,0,5.974-23.084-6.084-25.619
									c-12.059-2.535-22.636,2.213-22.636,2.213L574.053,161.898z"/>
								<g>
									<path style="fill:#EBAE89;" d="M579.38,155.066c-0.014,3.812-5.055,7.416-8.149,7.346s-3.07-3.786-3.056-7.597
										c0.014-3.812,2.533-6.846,5.627-6.776C576.896,148.108,579.394,151.255,579.38,155.066z"/>
									
										<path style="fill:none;stroke:#000000;stroke-width:0.5026;stroke-linecap:round;stroke-linejoin:round;stroke-miterlimit:10;" d="
										M574.873,152.907c-3.777-0.024-3.993,3.999-3.993,3.999"/>
								</g>
								<path style="fill:#21120E;" d="M556.299,142.552c0,0-3.475-0.23-3.276,2.248c0,0-0.031,1.766,2.986,1.777
									c2.467,0.009,4.203-0.218,4.448-1.816C560.701,143.163,558.675,142.428,556.299,142.552z"/>
								<path style="fill:#21120E;" d="M574.195,174.991l-0.723-2.924c-2.306,2.723-6.553,3.544-6.553,3.544
									C568.345,175.948,574.195,174.991,574.195,174.991z"/>
								
									<line style="fill:none;stroke:#FFFFFF;stroke-width:1.2593;stroke-miterlimit:10;" x1="549.797" y1="153.382" x2="568.036" y2="152.936"/>
							</g>
							<path style="fill:#9E5837;" d="M575.795,123.231c0,0-23.357,0.122-20.869,14.132c0,0,3.539-3.35,9.67-3.011L575.795,123.231z
								"/>
						</g>
						<g>
							<g>
								<path style="fill:#E69724;" d="M559.552,190.005c9.642-0.862,38.225-5.902,53.396-4.438
									c5.594,0.54,10.257,7.069,11.843,12.46l12.583,79.925c0,0-24.062,9.595-58.191,0l-20.129-62.323
									c-0.437-1.317-0.585-2.712-0.434-4.091l1.286-11.786C560.406,195.169,554.96,190.416,559.552,190.005z"/>
								<path style="fill:#E69724;" d="M617.647,187.46c0,0,23.707,16.07,31.682,62.677h-25.184L617.647,187.46z"/>
							</g>
							<g>
								<g>
									<path style="fill:#EBAE89;" d="M503.646,254.848l-8.931-4.316c-1.708-0.826-3.716-0.746-5.354,0.211l-7.267,4.247
										c-2.329,1.361-3.838,3.783-4.034,6.473l-0.395,5.428h3.711l3.004-6.192c0,0,3.604,6.192,17.62,6.192L503.646,254.848z"/>
									<path style="fill:#E69724;" d="M538.682,245.29l-34.02,3.314c0,0-10.02,12.833-5.171,18.288h42.933L538.682,245.29z"/>
								</g>
								<g>
									<path style="fill:#E69724;" d="M547.73,198.245l-17.926,52.819c-3.308,7.143,4.762,15.373,12.62,15.828l0,0
										c0.817,0.047,1.626,0.004,2.414-0.101c4.41-0.592,8.209-3.417,10.455-7.258L572.7,211.71
										c5.457-11.38-0.016-20.286-10.284-21.59h0C556.274,189.339,550.332,192.626,547.73,198.245z"/>
									
										<line style="fill:none;stroke:#000000;stroke-width:0.4132;stroke-linecap:round;stroke-linejoin:round;stroke-miterlimit:10;" x1="564.799" y1="233.417" x2="570.534" y2="217.661"/>
								</g>
							</g>
						</g>
					</g>
				</g>
				<g>
					<g>
						
							<rect x="609.947" y="324.208" transform="matrix(-1 -1.224647e-16 1.224647e-16 -1 1227.8011 695.3339)" style="fill:#FFFFFF;" width="7.907" height="46.918"/>
						
							<rect x="605.847" y="363.512" transform="matrix(-1 -1.224647e-16 1.224647e-16 -1 1227.5084 775.9301)" style="fill:#101010;" width="15.814" height="48.907"/>
						
							<rect x="580.598" y="409.258" transform="matrix(-1 -1.224647e-16 1.224647e-16 -1 1227.2377 824.8703)" style="fill:#FFFFFF;" width="66.042" height="6.354"/>
						
							<rect x="641.441" y="409.258" transform="matrix(-1 -1.224647e-16 1.224647e-16 -1 1288.0812 837.5781)" style="fill:#FFFFFF;" width="5.199" height="19.062"/>
						
							<ellipse transform="matrix(0.7071 -0.7071 0.7071 0.7071 -117.5559 584.3873)" style="fill:#101010;" cx="646.64" cy="434.096" rx="9.627" ry="9.627"/>
						<rect x="580.598" y="409.258" style="fill:#FFFFFF;" width="5.199" height="19.062"/>
						
							<ellipse transform="matrix(0.1597 -0.9872 0.9872 0.1597 59.3499 937.9156)" style="fill:#101010;" cx="580.598" cy="434.096" rx="9.627" ry="9.627"/>
					</g>
					<g>
						<path style="fill:#706F84;" d="M652.248,330.515h-64.294c-5.035,0-8.654-5.634-7.229-11.254l35.249-138.944
							c0.946-3.728,3.888-6.287,7.229-6.287h64.294c5.035,0,10.748,5.634,9.323,11.253l-37.344,138.945
							C658.531,327.956,655.589,330.515,652.248,330.515z"/>
						<path d="M670.177,330.515H598.95c-5.035,0-8.655-5.634-7.229-11.254l35.249-138.944c0.946-3.728,3.888-6.287,7.229-6.287
							h73.322c5.035,0,8.654,5.634,7.229,11.253l-37.343,138.945C676.46,327.956,673.518,330.515,670.177,330.515z"/>
						<path d="M664.369,330.515H541.911c-5.1,0-9.234-4.134-9.234-9.234l0,0c0-5.1,4.134-9.234,9.234-9.234h125.043
							c5.1,0,6.649,4.134,6.649,9.234l0,0C673.603,326.381,669.469,330.515,664.369,330.515z"/>
					</g>
				</g>
			</g>
		</g>
	</g>
	<g>
		<g>
			<g>
				<path style="fill:#D665A2;" d="M343.297,229.203c0,0-2.507,19.099,25.814,38.492c1.868,0.435,47.093,42.58,55.497,49.603
					c5.904,4.934,15.789-2.947,21.261-8.356l0,0c6.071-6.002,6.297-15.735,0.511-22.013l-67.067-74.714L343.297,229.203z"/>
				<g>
					<g>
						<polygon style="fill:#FFFFFF;" points="395.553,407.834 409.333,358.541 427.866,364.763 412.595,412.541 						"/>
						<g>
							<g>
								<g>
									<defs>
										<path id="XMLID_32_" d="M397.024,399.245c3.594,3.317,8.289,5.842,15.082,4.939c0,0,4.71-6.344,9.779-0.034
											c0,0,4.661,10.851,14.994,16.822c14.33,8.28,12.616,15.67,12.616,15.67l-63.106-21.187c0,0,3.492-9.643,6.58-15.436
											C393.768,398.522,395.777,398.094,397.024,399.245z"/>
									</defs>
									<use xlink:href="#XMLID_32_"  style="overflow:visible;"/>
									<clipPath id="XMLID_00000008841670789713089740000000797335367514120121_">
										<use xlink:href="#XMLID_32_"  style="overflow:visible;"/>
									</clipPath>
								</g>
								
									<rect x="383.464" y="425.853" transform="matrix(0.948 0.3183 -0.3183 0.948 158.403 -110.2988)" style="fill:#FFFFFF;" width="66.568" height="7.513"/>
							</g>
							
								<path style="fill:none;stroke:#FFFFFF;stroke-width:0.9645;stroke-linecap:round;stroke-linejoin:round;stroke-miterlimit:10;" d="
								M431.414,416.979c0,0-2.459-0.861-5.53,1.871"/>
							
								<path style="fill:none;stroke:#FFFFFF;stroke-width:0.9645;stroke-linecap:round;stroke-linejoin:round;stroke-miterlimit:10;" d="
								M428.84,414.251c0,0-2.459-0.861-5.53,1.871"/>
							
								<path style="fill:none;stroke:#FFFFFF;stroke-width:0.9645;stroke-linecap:round;stroke-linejoin:round;stroke-miterlimit:10;" d="
								M426.307,411.187c0,0-2.459-0.862-5.53,1.871"/>
						</g>
					</g>
					<polygon style="fill:#D665A2;" points="450.159,301.284 427.742,387.633 396.133,379.652 417.967,286.509 					"/>
				</g>
			</g>
			<g>
				<g>
					<polygon style="fill:#FFFFFF;" points="381.197,424.657 373.124,374.41 392.673,374.41 398.851,423.696 					"/>
					<g>
						<g>
							<g>
								<defs>
									<path id="XMLID_31_" d="M378.166,417.023c4.463,2.001,9.718,2.901,15.87-0.118c0,0,2.446-7.513,9.26-3.145
										c0,0,7.872,8.804,19.568,11.175c16.22,3.288,16.948,10.84,16.948,10.84h-66.568c0,0,0.241-10.253,1.325-16.728
										C374.849,417.375,376.618,416.329,378.166,417.023z"/>
								</defs>
								<use xlink:href="#XMLID_31_"  style="overflow:visible;"/>
								<clipPath id="XMLID_00000176031598826234611880000009141049894286408110_">
									<use xlink:href="#XMLID_31_"  style="overflow:visible;"/>
								</clipPath>
							</g>
							<rect x="373.244" y="435.776" style="fill:#FFFFFF;" width="66.568" height="7.513"/>
						</g>
						
							<path style="fill:none;stroke:#FFFFFF;stroke-width:0.9645;stroke-linecap:round;stroke-linejoin:round;stroke-miterlimit:10;" d="
							M416.412,422.89c0,0-2.606-0.034-4.647,3.533"/>
						
							<path style="fill:none;stroke:#FFFFFF;stroke-width:0.9645;stroke-linecap:round;stroke-linejoin:round;stroke-miterlimit:10;" d="
							M413.104,421.124c0,0-2.606-0.034-4.647,3.533"/>
						
							<path style="fill:none;stroke:#FFFFFF;stroke-width:0.9645;stroke-linecap:round;stroke-linejoin:round;stroke-miterlimit:10;" d="
							M409.727,419.025c0,0-2.606-0.034-4.647,3.533"/>
					</g>
				</g>
				<g>
					<polygon style="fill:#D665A2;" points="395.442,315.762 399.807,400.719 370.665,404.973 359.275,313.865 					"/>
					<g>
						<path style="fill:#D665A2;" d="M331.002,221.847c0,0-12.591,17.282,3.071,47.825c9.608,18.739,26.638,55.09,26.638,55.09
							c3.397,6.904,11.255,10.362,18.643,8.213l0,0c8.198-2.385,17.895-10.834,15.798-19.11l-28.599-93.691L331.002,221.847z"/>
						
							<line style="fill:none;stroke:#000000;stroke-width:0.5344;stroke-linecap:round;stroke-linejoin:round;stroke-miterlimit:10;" x1="385.437" y1="282.037" x2="376.053" y2="251.306"/>
					</g>
				</g>
			</g>
		</g>
		<g>
			<g>
				<path style="fill:#5A33DC;" d="M379.65,130.841c0,0,21.055,4.014,19.034,34.24l-25.268,11.339L379.65,130.841z"/>
				<path style="fill:#5A33DC;" d="M356.85,126.7c-6.581,0.884-15.959,2.679-21.997,5.441c-1.479,0.676-2.914,1.897-4.528,5.514
					c-1.971,4.416,0.546,3.87,1.324,8.784l-8.56,88.266c0,0,29.425,3.129,67.469-9.328l-2.842-79.581
					c0.138-6.908-1.658-13.04-8.066-14.955c-7.179-2.145-15.928-4.515-19.695-4.558L356.85,126.7z"/>
				<g>
					
						<line style="fill:none;stroke:#000000;stroke-width:0.4132;stroke-linecap:round;stroke-linejoin:round;stroke-miterlimit:10;" x1="387.988" y1="153.415" x2="389.194" y2="177.687"/>
					<path style="fill:#C67D66;" d="M343.297,129.292c0,0,6.572-2.889,15.844-3.419c0,0,8.909,1.374,15.818,3.605
						c0,0,6.056,10.172-10.323,10.111C347.822,139.526,343.297,129.292,343.297,129.292z"/>
				</g>
			</g>
			<g>
				<g>
					<g>
						<g>
							<path style="fill:#C67D66;" d="M338.392,161.02c0,0-4.788,28.606-11.346,49.666c-0.789,2.535-6.345,4.219-8.996,4.387l0,0
								c-3.997,0.253-10.108-3.874-9.501-9.55l9.675-49.642L338.392,161.02z"/>
						</g>
					</g>
					<g>
						<path style="fill:#5A33DC;" d="M341.894,130.409c0,0-27.867,2.062-30.723,37.307l31.518,8.704l-2.841-25.372L341.894,130.409z
							"/>
						
							<line style="fill:none;stroke:#000000;stroke-width:0.4132;stroke-linecap:round;stroke-linejoin:round;stroke-miterlimit:10;" x1="336.167" y1="174.482" x2="339.047" y2="160.258"/>
					</g>
				</g>
				<g>
					<g>
						<g>
							<path style="fill:#FFFFFF;" d="M360.811,155.363l13.671,18.517l2.598-1.93l-13.676-18.503
								c-0.56-0.758-1.647-0.876-2.357-0.256l0,0C360.415,153.744,360.312,154.688,360.811,155.363z"/>
							<polygon style="fill:#706F84;" points="361.676,156.535 364.35,154.728 365.017,155.632 362.389,157.501 							"/>
						</g>
						<path style="fill:#C67D66;" d="M365.603,180.225c0,0,4.171-19.52,25.001-7.14l-18.005,14.958l-5.874-0.625L365.603,180.225z"
							/>
					</g>
					<g>
						<g>
							<g>
								<path style="fill:#C67D66;" d="M323.859,213.491l42.867-26.073l2.378-10.998c0,0-31.735,11.106-51.975,19.332
									c-3.211,1.305-6.346,10.715-4.786,13.811l2.361-2.188C316.164,210.275,320.289,215.843,323.859,213.491z"/>
							</g>
						</g>
						
							<line style="fill:none;stroke:#000000;stroke-width:0.4132;stroke-linecap:round;stroke-linejoin:round;stroke-miterlimit:10;" x1="332.734" y1="189.66" x2="324.281" y2="192.908"/>
					</g>
				</g>
			</g>
			<g>
				<g>
					<path style="fill:#4D495D;" d="M393.829,156.361l-34.339,51.245c-0.603,0.9,0.138,2.09,1.212,1.946l40.499-4.349
						c2.099-0.282,3.982-1.437,5.184-3.182l34.609-48.312c0.864-1.255-0.124-2.949-1.642-2.813l-42.204,3.501
						C395.802,154.515,394.582,155.238,393.829,156.361z"/>
					<path style="fill:#706F84;" d="M407.256,182.126c-1.472,2.55-4.293,3.678-6.301,2.519c-2.007-1.159-2.441-4.166-0.969-6.716
						c1.472-2.55,4.293-3.678,6.301-2.519C408.295,176.568,408.729,179.575,407.256,182.126z"/>
				</g>
				<path style="fill:#C67D66;" d="M418.94,184.495c0,0-5.371-2.313-9.102,3.548c-4.094,6.431-2.037,12.001-2.037,12.001
					s5.19,0.83,10.398-5.223c2.633-3.06,3.393-6.8,2.076-12.19L418.94,184.495z"/>
			</g>
		</g>
		<g>
			<g>
				<path style="fill:#060606;" d="M345.591,79.312c-1.272,13.237,11.096,23.896,19.085,24.517
					c11.136,0.865,21.109-6.322,22.369-17.036s-6.711-20.458-17.804-21.763C358.148,63.724,346.765,67.102,345.591,79.312z"/>
				<g>
					<path style="fill:#B86856;" d="M375.455,97.634c-0.499,3.468,1.97,6.144,5.438,6.642c3.468,0.499,6.774-2.667,7.273-6.135
						c0.499-3.468-2.061-5.384-5.529-5.883C379.169,91.76,375.954,94.167,375.455,97.634z"/>
				</g>
				<g>
					<path style="fill:#FFFFFF;" d="M382.593,99.04c0.794,0.571,1.9,0.39,2.47-0.404c0.571-0.794,0.39-1.899-0.404-2.47
						c-0.794-0.571-1.9-0.39-2.47,0.404C381.619,97.364,381.8,98.47,382.593,99.04z"/>
					<path style="fill:#FFFFFF;" d="M385.332,97.133l0.888,3.253c0.112,0.411-0.129,0.835-0.539,0.949l0,0
						c-0.403,0.112-0.823-0.117-0.946-0.517l-0.905-2.924L385.332,97.133z"/>
				</g>
				<polygon style="fill:#C67D66;" points="358.84,102.278 352.62,131.881 368.786,134.862 371.221,107.568 				"/>
				<path style="fill:#060606;" d="M370.065,120.527c0,0-9.571-1.757-13.501-14.757l14.34,5.352L370.065,120.527z"/>
				<path style="fill:#C67D66;" d="M376.092,68.92c0,0,13.774,2.074,10.595,20.115c-3.179,18.041-5.882,22.619-13.602,25.584
					c-6.937,2.664-14.94-1.378-18.779-9.659c-1.508-3.252-2.371-7.976-2.225-11.558l-0.524-4.871
					C351.558,88.531,348.63,64.266,376.092,68.92z"/>
				<path style="fill:#060606;" d="M353.734,74.973c0,0,6.87,5.622,1.781,20.695l-6.112-7.726L353.734,74.973z"/>
				<g>
					<path style="fill:#C67D66;" d="M355.279,98.355c-1.146,3.311-2.944,4.411-7.308,2.98c-3.329-1.092-4.798-5.476-3.652-8.786
						c1.146-3.311,4.025-3.786,7.429-2.251C354.118,91.367,356.425,95.045,355.279,98.355z"/>
					
						<path style="fill:none;stroke:#000000;stroke-width:0.5026;stroke-linecap:round;stroke-linejoin:round;stroke-miterlimit:10;" d="
						M348.12,93.145c0,0,3.302-0.339,3.892,4.366"/>
					<g>
						<path style="fill:#FFFFFF;" d="M351.087,95.938c-0.114,0.971-0.994,1.665-1.965,1.551c-0.971-0.114-1.665-0.994-1.551-1.965
							c0.114-0.971,0.994-1.665,1.965-1.551C350.507,94.088,351.201,94.968,351.087,95.938z"/>
						<path style="fill:#FFFFFF;" d="M347.832,96.673l1.802,2.85c0.228,0.36,0.703,0.468,1.064,0.243l0,0
							c0.355-0.222,0.469-0.686,0.257-1.047l-1.548-2.641L347.832,96.673z"/>
					</g>
				</g>
				<path style="fill:#060606;" d="M354.73,76.09c0,0,17.058-8.91,30.407-0.678c0,0-5.518-11.032-19.855-8.353
					c-14.337,2.679-14.674,10.652-14.674,10.652L354.73,76.09z"/>
				<path style="fill:#060606;" d="M360.317,72.627c0,0,7.492,7.53,26.482,7.354c0,0-0.837-4.6-3.467-7.13l-12.445-4.46
					L360.317,72.627z"/>
				<g>
					<g>
						
							<polyline style="fill:none;stroke:#000000;stroke-width:0.5026;stroke-linecap:round;stroke-linejoin:round;stroke-miterlimit:10;" points="
							375.727,96.593 376.806,100.596 374.31,101.62 						"/>
					</g>
					<g>
						<defs>
							<path id="XMLID_30_" d="M367.155,90.669c0,0,4.506,0.08,4.582,2.288c0.076,2.208-5.213,1.635-5.213,1.635
								s-4.63-0.009-4.62-2.075C361.914,90.451,367.155,90.669,367.155,90.669z"/>
						</defs>
						<use xlink:href="#XMLID_30_"  style="overflow:visible;fill:#FFFFFF;"/>
						<clipPath id="XMLID_00000164509158723822773580000017479498379881624244_">
							<use xlink:href="#XMLID_30_"  style="overflow:visible;"/>
						</clipPath>
						<path style="clip-path:url(#XMLID_00000164509158723822773580000017479498379881624244_);fill:#060606;" d="M364.818,92.578
							c-0.035,1.339,1.174,2.457,2.702,2.497c1.527,0.04,2.794-1.012,2.83-2.351c0.035-1.339-1.174-2.457-2.702-2.497
							C366.12,90.187,364.853,91.239,364.818,92.578z"/>
					</g>
					<g>
						<defs>
							<path id="XMLID_24_" d="M381.542,92.788c0,0-3.176-0.573-3.597,1.333c-0.421,1.906,3.358,2.262,3.358,2.262
								s3.281,0.552,3.618-1.243C385.258,93.346,381.542,92.788,381.542,92.788z"/>
						</defs>
						<use xlink:href="#XMLID_24_"  style="overflow:visible;fill:#FFFFFF;"/>
						<clipPath id="XMLID_00000003065627110724612890000002324963431918805649_">
							<use xlink:href="#XMLID_24_"  style="overflow:visible;"/>
						</clipPath>
						<path style="clip-path:url(#XMLID_00000003065627110724612890000002324963431918805649_);fill:#060606;" d="M383.521,94.861
							c-0.198,1.167-1.288,1.956-2.435,1.762c-1.147-0.194-1.917-1.298-1.719-2.465c0.198-1.167,1.288-1.956,2.435-1.762
							S383.718,93.693,383.521,94.861z"/>
					</g>
					<path style="fill:#060606;" d="M362.656,86.686l8.191-0.197c1.126-0.027,2.017-0.962,1.99-2.088l0,0
						c-0.027-1.126-0.962-2.017-2.088-1.99l-8.191,0.197c-1.126,0.027-2.017,0.962-1.99,2.088v0
						C360.595,85.823,361.53,86.713,362.656,86.686z"/>
					<path style="fill:#060606;" d="M385.235,89.257l-5.329-1.346c-1.089-0.288-1.738-1.404-1.451-2.493l0,0
						c0.288-1.089,1.404-1.738,2.493-1.451l5.329,1.346c1.089,0.288,1.738,1.404,1.451,2.493l0,0
						C387.44,88.895,386.324,89.544,385.235,89.257z"/>
					<path style="fill:#FFFFFF;" d="M375.827,104.527l-8.876-1.613c0,0,0.51,3.316,4.774,3.817
						C375.278,107.15,375.827,104.527,375.827,104.527z"/>
				</g>
			</g>
			<g>
				
					<ellipse transform="matrix(0.9868 -0.162 0.162 0.9868 -4.8487 59.6218)" style="fill:#442B76;" cx="363.191" cy="59.544" rx="2.966" ry="2.184"/>
				<g>
					<defs>
						<path id="XMLID_23_" d="M345.591,79.312l40.379-3.099l-0.473-1.581c-2.608-8.728-10.954-14.653-20.262-14.385l0,0
							c-10.264,0.295-18.646,7.998-19.546,17.962L345.591,79.312z"/>
					</defs>
					<use xlink:href="#XMLID_23_"  style="overflow:visible;fill:#442B76;"/>
					<clipPath id="XMLID_00000098902467428912458190000013066632943391712905_">
						<use xlink:href="#XMLID_23_"  style="overflow:visible;"/>
					</clipPath>
					<path style="clip-path:url(#XMLID_00000098902467428912458190000013066632943391712905_);fill:#FFFFFF;" d="M384.802,72.694
						l-24.703,1.796c0,0-2.456-9.402,5.175-15.675C365.273,58.814,384.388,59.615,384.802,72.694"/>
				</g>
				<path style="fill:#442B76;" d="M375.205,77.039l24.116-1.9c1.07-0.081,1.824-1.084,1.606-2.134l0,0
					c-0.181-0.874-0.983-1.478-1.873-1.412l-24.203,1.868L375.205,77.039z"/>
			</g>
		</g>
	</g>
	
		<line style="fill:none;stroke:#000000;stroke-width:0.7853;stroke-linecap:round;stroke-linejoin:round;stroke-miterlimit:10;" x1="29.842" y1="443.764" x2="701.962" y2="443.764"/>
</g>
</svg>
